<svg width="40" height="40" viewBox="0 0 40 40" fill="none" xmlns="http://www.w3.org/2000/svg">
<path d="M7.69167 33.3337C6.925 33.3337 6.285 33.077 5.77167 32.5637C5.25722 32.0492 5 31.4087 5 30.642V24.167H16.6667V26.667H23.3333V24.167H35V30.642C35 31.4087 34.7433 32.0487 34.23 32.562C33.7156 33.0764 33.075 33.3337 32.3083 33.3337H7.69167ZM18.3333 25.0003V21.667H21.6667V25.0003H18.3333ZM5 22.5003V14.3587C5 13.592 5.25722 12.952 5.77167 12.4387C6.285 11.9242 6.925 11.667 7.69167 11.667H15V9.35866C15 8.59199 15.2572 7.95199 15.7717 7.43866C16.285 6.92421 16.925 6.66699 17.6917 6.66699H22.3083C23.075 6.66699 23.7156 6.92421 24.23 7.43866C24.7433 7.95199 25 8.59199 25 9.35866V11.667H32.3083C33.075 11.667 33.715 11.9242 34.2283 12.4387C34.7428 12.952 35 13.592 35 14.3587V22.5003H23.3333V20.0003H16.6667V22.5003H5ZM16.6667 11.667H23.3333V9.35866C23.3333 9.1031 23.2267 8.8681 23.0133 8.65366C22.7989 8.44033 22.5639 8.33366 22.3083 8.33366H17.6917C17.4361 8.33366 17.2011 8.44033 16.9867 8.65366C16.7733 8.8681 16.6667 9.1031 16.6667 9.35866V11.667Z" fill="#AAD6D3"/>
</svg>
