<svg width="16" height="12" viewBox="0 0 16 12" fill="none" xmlns="http://www.w3.org/2000/svg">
<path d="M15.2551 1.97369L5.75508 11.4737C5.67234 11.5567 5.57402 11.6226 5.46577 11.6676C5.35751 11.7125 5.24144 11.7356 5.12423 11.7356C5.00701 11.7356 4.89094 11.7125 4.78268 11.6676C4.67443 11.6226 4.57611 11.5567 4.49337 11.4737L0.337116 7.31744C0.254271 7.2346 0.188554 7.13625 0.143718 7.028C0.0988823 6.91976 0.0758057 6.80375 0.0758057 6.68658C0.0758057 6.56942 0.0988823 6.45341 0.143718 6.34517C0.188554 6.23692 0.254271 6.13857 0.337116 6.05573C0.419962 5.97288 0.518314 5.90716 0.626557 5.86233C0.7348 5.81749 0.850814 5.79441 0.967976 5.79441C1.08514 5.79441 1.20115 5.81749 1.30939 5.86233C1.41764 5.90716 1.51599 5.97288 1.59883 6.05573L5.12497 9.58186L13.9948 0.713459C14.1622 0.546144 14.3891 0.452148 14.6257 0.452148C14.8623 0.452148 15.0893 0.546144 15.2566 0.713459C15.4239 0.880773 15.5179 1.1077 15.5179 1.34432C15.5179 1.58094 15.4239 1.80786 15.2566 1.97518L15.2551 1.97369Z" fill="#C1A875"/>
</svg>
