<svg width="40" height="40" viewBox="0 0 40 40" fill="none" xmlns="http://www.w3.org/2000/svg">
<g clip-path="url(#clip0_118_208)">
<path fill-rule="evenodd" clip-rule="evenodd" d="M15.3857 14.9767L19.3971 11.3481C20.3197 10.5152 21.4124 9.89296 22.5994 9.52442C23.7864 9.15589 25.0394 9.04991 26.2714 9.21384L31.58 9.9167L38.9457 5.9367C39.0546 5.87779 39.1768 5.84817 39.3005 5.85074C39.4243 5.85331 39.5452 5.88798 39.6515 5.95135C39.7578 6.01473 39.8458 6.10463 39.9069 6.21225C39.968 6.31987 40.0001 6.44152 40 6.56527V20.1024C39.9999 20.5567 39.8915 21.0043 39.6838 21.4083C39.4761 21.8123 39.1751 22.1609 38.8057 22.4253L33.8457 25.971L28.4743 21.4681C29.522 21.0914 30.4671 20.475 31.2343 19.6681C31.3973 19.4993 31.5255 19.3 31.6115 19.0816C31.6975 18.8632 31.7396 18.63 31.7355 18.3954C31.7314 18.1607 31.6811 17.9292 31.5875 17.7139C31.4939 17.4987 31.3588 17.304 31.19 17.141C31.0212 16.978 30.8219 16.8498 30.6035 16.7638C30.3851 16.6778 30.1519 16.6356 29.9173 16.6397C29.6826 16.6438 29.451 16.6941 29.2358 16.7877C29.0206 16.8813 28.8259 17.0164 28.6629 17.1853C28.1343 17.7367 27.52 18.091 26.8 18.231C26.1743 18.3538 25.3771 18.3338 24.3743 18.0253L23.1 16.9538L19.5429 19.8367C18.8939 20.3506 18.0712 20.593 17.2473 20.5131C16.4234 20.4332 15.6625 20.0371 15.1245 19.4081C14.5865 18.7791 14.3131 17.9661 14.3618 17.1397C14.4105 16.3134 14.7775 15.5381 15.3857 14.9767ZM12.9914 12.3253L15.8714 9.72241C14.6333 9.38459 13.336 9.32314 12.0714 9.54241L6.82857 10.451L1.07429 7.35384C0.963184 7.29395 0.838426 7.26395 0.71224 7.26678C0.586053 7.2696 0.462766 7.30517 0.354458 7.36998C0.246151 7.43479 0.156538 7.52663 0.0944018 7.63649C0.0322652 7.74636 -0.00026394 7.87048 1.61293e-06 7.9967V20.0996C1.61293e-06 21.0653 0.477144 21.9681 1.27429 22.511L16.86 33.1367C17.8452 33.8081 19.0124 34.1617 20.2046 34.1499C21.3968 34.1382 22.5568 33.7617 23.5286 33.071L30.6886 27.9881L23.06 21.5881L21.7886 22.611C20.4168 23.7135 18.6697 24.2386 16.9175 24.075C15.1652 23.9115 13.5454 23.0722 12.4013 21.735C11.2573 20.3977 10.6787 18.6676 10.7883 16.9111C10.898 15.1547 11.69 13.5099 12.9914 12.3253Z" fill="#AAD6D3"/>
</g>
<defs>
<clipPath id="clip0_118_208">
<rect width="40" height="40" fill="white"/>
</clipPath>
</defs>
</svg>
