<svg width="60" height="60" viewBox="0 0 60 60" fill="none" xmlns="http://www.w3.org/2000/svg">
<path fill-rule="evenodd" clip-rule="evenodd" d="M3.00003 58C18.464 58 31 45.464 31 30C31 14.536 18.464 2 3.00003 2V12.8574C12.4678 12.8574 20.1429 20.5325 20.1429 30.0003C20.1429 39.468 12.4677 47.1431 3 47.1431L3.00003 58Z" fill="#AAD6D3"/>
<path fill-rule="evenodd" clip-rule="evenodd" d="M59 58C43.536 58 31 45.464 31 30C31 14.536 43.536 2 59 2V12.8574C49.5322 12.8574 41.8571 20.5325 41.8571 30.0003C41.8571 39.468 49.5323 47.1431 59 47.1431L59 58Z" fill="#FFFCF5"/>
<mask id="path-3-inside-1_115_188" fill="white">
<path fill-rule="evenodd" clip-rule="evenodd" d="M56 58C40.536 58 28 45.464 28 30C28 14.536 40.536 2 56 2V12.8574C46.5322 12.8574 38.8571 20.5325 38.8571 30.0003C38.8571 39.468 46.5323 47.1431 56 47.1431L56 58Z"/>
</mask>
<path d="M56 58L57 58L57 59H56V58ZM56 2V1H57V2H56ZM56 12.8574H57V13.8574L56 13.8574L56 12.8574ZM56 47.1431V46.1431H57L57 47.1431L56 47.1431ZM56 59C39.9837 59 27 46.0163 27 30H29C29 44.9117 41.0883 57 56 57V59ZM27 30C27 13.9837 39.9837 1 56 1V3C41.0883 3 29 15.0883 29 30H27ZM57 2V12.8574H55V2H57ZM37.8571 30.0003C37.8571 19.9803 45.98 11.8574 56 11.8574L56 13.8574C47.0845 13.8574 39.8571 21.0848 39.8571 30.0003H37.8571ZM56 48.1431C45.98 48.1431 37.8571 40.0203 37.8571 30.0003H39.8571C39.8571 38.9157 47.0845 46.1431 56 46.1431V48.1431ZM57 47.1431L57 58L55 58L55 47.1431L57 47.1431Z" fill="#C1A875" mask="url(#path-3-inside-1_115_188)"/>
</svg>
