<svg width="60" height="60" viewBox="0 0 60 60" fill="none" xmlns="http://www.w3.org/2000/svg">
<path d="M2.23013 6.94174C1.91033 5.84183 2.73849 4.74372 3.88393 4.74886L52.7367 4.96796C54.1479 4.97429 54.9474 6.58774 54.0977 7.71445L18.8843 54.406C18.0345 55.5327 16.2635 55.2075 15.8695 53.8524L2.23013 6.94174Z" fill="#AAD6D3"/>
<path d="M28.6165 35.9201C27.0175 30.4206 31.1583 24.9301 36.8856 24.9557L48.7805 25.0091C55.8365 25.0407 59.8342 33.108 55.5855 38.7415L47.0115 50.1103C42.7629 55.7438 33.9075 54.1177 31.9375 47.3422L28.6165 35.9201Z" fill="#FFFCF5"/>
<path d="M31.668 37.4944C30.1623 32.3157 34.0615 27.1454 39.4547 27.1696L51.3496 27.223C57.994 27.2528 61.7585 34.8494 57.7576 40.1543L49.1837 51.5231C45.1829 56.828 36.844 55.2967 34.989 48.9165L31.668 37.4944Z" stroke="#C1A875"/>
</svg>
