<svg width="60" height="60" viewBox="0 0 60 60" fill="none" xmlns="http://www.w3.org/2000/svg">
<path fill-rule="evenodd" clip-rule="evenodd" d="M6 51.995C17.9663 51.7816 27.601 42.0147 27.601 29.9975C27.601 17.9803 17.9663 8.21338 6 8V51.995Z" fill="#AAD6D3"/>
<path fill-rule="evenodd" clip-rule="evenodd" d="M58 57.9921C43.0429 57.7254 31 45.5173 31 30.4965C31 15.4757 43.0429 3.26766 58 3.00098V57.9921Z" fill="#FFFCF5"/>
<mask id="path-3-inside-1_115_150" fill="white">
<path fill-rule="evenodd" clip-rule="evenodd" d="M54.0361 55.9911C40.1669 55.7438 29 44.4238 29 30.4956C29 16.5673 40.1669 5.24729 54.0361 5V55.9911Z"/>
</mask>
<path d="M54.0361 55.9911H55.0361V57.0091L54.0182 56.9909L54.0361 55.9911ZM54.0361 5L54.0182 4.00016L55.0361 3.98201V5H54.0361ZM30 30.4956C30 43.8774 40.729 54.7537 54.0539 54.9913L54.0182 56.9909C39.6048 56.7339 28 44.9701 28 30.4956H30ZM54.0539 5.99984C40.729 6.23743 30 17.1137 30 30.4956H28C28 16.021 39.6048 4.25715 54.0182 4.00016L54.0539 5.99984ZM55.0361 5V55.9911H53.0361V5H55.0361Z" fill="#C1A875" mask="url(#path-3-inside-1_115_150)"/>
</svg>
