<?xml version="1.0" standalone="no"?>
<!DOCTYPE svg PUBLIC "-//W3C//DTD SVG 20010904//EN"
 "http://www.w3.org/TR/2001/REC-SVG-20010904/DTD/svg10.dtd">
<svg version="1.0" xmlns="http://www.w3.org/2000/svg"
 width="140.000000pt" height="56.000000pt" viewBox="0 0 140.000000 56.000000"
 preserveAspectRatio="xMidYMid meet">

<g transform="translate(0.000000,56.000000) scale(0.100000,-0.100000)"
fill="#000000" stroke="none">
<path d="M193 423 c-25 -9 -13 -23 20 -23 31 0 57 -14 57 -32 0 -4 -16 -8 -35
-8 -19 0 -35 -4 -35 -10 0 -5 16 -10 35 -10 41 0 45 -13 11 -35 -19 -13 -29
-14 -45 -6 -24 13 -42 -6 -20 -20 47 -29 119 14 119 71 0 54 -58 93 -107 73z"/>
<path d="M345 375 c-3 -30 -13 -61 -21 -69 -16 -16 -19 -36 -5 -36 21 0 41 34
47 80 6 44 9 50 30 50 23 0 24 -3 24 -66 0 -48 3 -65 13 -61 8 2 12 27 12 78
l0 74 -46 3 -47 3 -7 -56z"/>
<path d="M490 351 l0 -81 28 0 c37 0 72 26 72 54 0 28 -18 46 -46 46 -17 0
-23 7 -26 27 -2 14 -9 28 -15 31 -10 3 -13 -17 -13 -77z m68 -29 c3 -17 -2
-22 -17 -22 -16 0 -21 6 -21 26 0 33 33 30 38 -4z"/>
<path d="M630 350 l0 -80 28 0 c42 0 64 21 60 55 -2 24 -10 32 -35 40 -42 12
-43 35 -3 35 20 0 30 5 30 15 0 11 -11 15 -40 15 l-40 0 0 -80z m65 -30 c0 -8
-10 -16 -22 -18 -18 -3 -23 2 -23 18 0 16 5 21 23 18 12 -2 22 -10 22 -18z"/>
<path d="M760 351 c0 -99 10 -102 65 -25 l40 56 3 -56 c5 -86 22 -67 22 24 0
44 -4 80 -9 80 -5 0 -27 -24 -48 -52 l-38 -53 -5 49 c-3 27 -11 51 -17 54 -10
3 -13 -17 -13 -77z"/>
<path d="M940 350 c0 -47 4 -80 10 -80 6 0 10 16 10 35 0 19 4 35 9 35 5 0 21
-16 35 -35 15 -19 34 -35 42 -35 11 0 7 11 -15 39 -17 21 -31 42 -31 47 0 4
12 20 27 36 42 44 17 46 -27 3 l-40 -39 0 37 c0 20 -4 37 -10 37 -6 0 -10 -33
-10 -80z"/>
<path d="M1100 354 c-17 -42 -29 -78 -26 -81 8 -8 26 7 26 23 0 10 12 14 39
14 31 0 41 -4 46 -20 3 -11 13 -20 20 -20 11 0 6 20 -19 77 -18 42 -37 78 -43
80 -6 2 -25 -30 -43 -73z m54 10 c9 -23 8 -24 -13 -24 -14 0 -18 5 -14 20 6
24 19 26 27 4z"/>
<path d="M170 116 c0 -14 4 -28 10 -31 6 -3 7 1 4 9 -3 9 -1 16 5 16 6 0 11
-5 11 -12 0 -6 3 -8 7 -5 3 4 -3 16 -15 27 l-22 21 0 -25z"/>
<path d="M313 128 c-22 -28 -24 -38 -8 -32 9 4 13 9 11 12 -3 3 -1 11 5 19 6
7 9 13 6 13 -2 0 -9 -6 -14 -12z"/>
<path d="M352 115 c0 -16 2 -22 5 -12 2 9 2 23 0 30 -3 6 -5 -1 -5 -18z"/>
<path d="M532 115 c0 -16 2 -22 5 -12 2 9 2 23 0 30 -3 6 -5 -1 -5 -18z"/>
<path d="M570 110 c0 -22 5 -30 18 -30 14 0 15 2 2 10 -11 7 -12 12 -4 18 9 5
8 11 -2 20 -12 11 -14 8 -14 -18z"/>
<path d="M651 124 c0 -11 3 -14 6 -6 3 7 2 16 -1 19 -3 4 -6 -2 -5 -13z"/>
<path d="M793 125 c-3 -9 -3 -18 -1 -21 3 -3 8 4 11 16 6 23 -1 27 -10 5z"/>
<path d="M837 119 c4 -13 8 -18 11 -10 2 7 -1 18 -6 23 -8 8 -9 4 -5 -13z"/>
<path d="M940 116 c0 -14 4 -28 10 -31 6 -3 7 1 4 9 -3 9 -1 16 5 16 6 0 11
-5 11 -12 0 -6 3 -8 7 -5 3 4 -3 16 -15 27 l-22 21 0 -25z"/>
<path d="M1018 126 c-22 -16 -23 -23 -4 -23 8 0 17 9 19 19 3 10 4 18 4 18 -1
0 -10 -7 -19 -14z"/>
<path d="M1067 119 c4 -13 8 -18 11 -10 2 7 -1 18 -6 23 -8 8 -9 4 -5 -13z"/>
<path d="M390 109 c0 -5 9 -9 20 -9 11 0 20 2 20 4 0 2 -9 6 -20 9 -11 3 -20
1 -20 -4z"/>
<path d="M1188 98 c-10 -10 -14 -18 -9 -18 10 0 36 29 30 34 -2 1 -12 -6 -21
-16z"/>
<path d="M687 89 c7 -7 15 -10 18 -7 3 3 -2 9 -12 12 -14 6 -15 5 -6 -5z"/>
<path d="M878 83 c7 -3 16 -2 19 1 4 3 -2 6 -13 5 -11 0 -14 -3 -6 -6z"/>
</g>
</svg>
